<?xml version="1.0" encoding="UTF-8" standalone="no"?>
<svg width="30px" height="25px" viewBox="0 0 30 25" version="1.1" xmlns="http://www.w3.org/2000/svg" xmlns:xlink="http://www.w3.org/1999/xlink" xmlns:sketch="http://www.bohemiancoding.com/sketch/ns">
    <!-- Generator: Sketch 3.0.3 (7891) - http://www.bohemiancoding.com/sketch -->
    <title></title>
    <desc>Created with Sketch.</desc>
    <defs></defs>
    <g id="Page-1" stroke="none" stroke-width="1" fill="none" fill-rule="evenodd" sketch:type="MSPage">
        <path d="M12.8320312,1.2421875 L12.8203125,1.27734375 C12.5390611,2.08984781 10.9648581,6.23043141 8.09765625,13.6992188 L8.02734375,13.6992188 L3.03515625,1.06640625 L2.96484375,0.890625 C2.78515535,0.531248203 2.50781438,0.273438281 2.1328125,0.1171875 C1.75781062,-0.0390632813 1.38281438,-0.0468757031 1.0078125,0.09375 C0.609373008,0.250000781 0.322266504,0.51367002 0.146484375,0.884765625 C-0.0292977539,1.25586123 -0.0507819141,1.64062301 0.08203125,2.0390625 C0.652346602,3.46875715 2.77732535,8.65620527 6.45703125,17.6015625 L6.0703125,18.4335938 C5.69531062,19.4648489 5.27343984,20.2031228 4.8046875,20.6484375 C4.33593516,21.0937522 3.67578551,21.3164062 2.82421875,21.3164062 C2.36327895,21.3164062 2.07421934,21.3007814 1.95703125,21.2695312 C1.64452969,21.2539062 1.35937629,21.3398428 1.1015625,21.5273438 C0.843748711,21.7148447 0.675781641,21.960936 0.59765625,22.265625 C0.51171832,22.6093767 0.558592852,22.9394515 0.73828125,23.2558594 C0.917969648,23.5722672 1.17968578,23.7812495 1.5234375,23.8828125 C1.9843773,23.9609379 2.48046609,24 3.01171875,24 C3.69140965,24 4.30859098,23.9179696 4.86328125,23.7539062 C5.41015898,23.5898429 5.87109187,23.3750013 6.24609375,23.109375 C6.62109563,22.8437487 6.97656082,22.4843773 7.3125,22.03125 C7.85937773,21.2734337 8.37109137,20.2695375 8.84765625,19.0195312 L15.5039062,2.44921875 C15.5117188,2.44140621 15.5507809,2.34375094 15.6210938,2.15625 L15.609375,2.15625 C15.6250001,2.14062492 15.6328125,2.12109387 15.6328125,2.09765625 C15.7578131,1.71484184 15.7285165,1.3457049 15.5449219,0.990234375 C15.3613272,0.634763848 15.0742207,0.390625664 14.6835938,0.2578125 C14.3007793,0.140624414 13.9355486,0.167967891 13.5878906,0.33984375 C13.2402326,0.511719609 13.0000007,0.781248164 12.8671875,1.1484375 C12.8671875,1.15625004 12.8632813,1.16992178 12.8554688,1.18945312 C12.8476562,1.20898447 12.8398438,1.22656242 12.8320312,1.2421875 Z M24.5039062,5.5078125 C24.7929702,5.27343633 24.9687497,4.9765643 25.03125,4.6171875 C25.0937503,4.2578107 25.0234385,3.92187656 24.8203125,3.609375 C24.6406241,3.33593613 24.4003921,3.1445318 24.0996094,3.03515625 C23.7988266,2.9257807 23.4960953,2.91406207 23.1914062,3 L23.1679688,3.01171875 C23.1523437,3.01953129 23.1328126,3.02929682 23.109375,3.04101563 C23.0859374,3.05273443 23.0625001,3.06640617 23.0390625,3.08203125 C22.5781227,3.3320325 21.7773495,3.8691365 20.6367188,4.69335938 C19.496088,5.51758225 18.4648484,6.3242148 17.5429688,7.11328125 C16.4570258,8.0429734 16.109373,8.5781243 16.5,8.71875 C16.8750019,8.84375063 17.839836,8.58984691 19.3945312,7.95703125 C21.1601651,7.23046512 22.863273,6.41406703 24.5039062,5.5078125 Z M27.1523437,10.8164062 L26.9648437,10.8164062 C26.0429641,10.8164062 24.3515748,11.0039044 21.890625,11.3789062 C19.5234257,11.738283 18.3828121,12.1093731 18.46875,12.4921875 C18.5390629,12.8281267 19.523428,13.1054677 21.421875,13.3242188 C23.2500091,13.5273448 25.1406152,13.6289062 27.09375,13.6289062 C27.4531268,13.5664059 27.7480457,13.3906264 27.9785156,13.1015625 C28.2089855,12.8124986 28.3125001,12.4843768 28.2890625,12.1171875 C28.2656249,11.7968734 28.1464854,11.5156262 27.9316406,11.2734375 C27.7167958,11.0312488 27.4570328,10.8789066 27.1523437,10.8164062 Z M24.5039062,19.078125 C22.8398354,18.1640579 21.1328213,17.3476598 19.3828125,16.6289062 C17.37499,15.8164022 16.3671875,15.6249979 16.359375,16.0546875 C16.3515625,16.3125013 16.7460898,16.7851528 17.5429688,17.4726562 C18.4648484,18.2617227 19.496088,19.0683553 20.6367188,19.8925781 C21.7773495,20.716801 22.5781227,21.253905 23.0390625,21.5039062 C23.0625001,21.5273439 23.1132809,21.5546873 23.1914062,21.5859375 C23.4960953,21.6718754 23.7988266,21.6621099 24.0996094,21.5566406 C24.4003921,21.4511713 24.6406241,21.2617201 24.8203125,20.9882812 C25.0234385,20.6757797 25.0917972,20.3378924 25.0253906,19.9746094 C24.958984,19.6113263 24.7851577,19.3125012 24.5039062,19.078125 Z" id="" fill="#FFFFFF" sketch:type="MSShapeGroup"></path>
    </g>
</svg>